<?xml version="1.0" encoding="UTF-8"?>
<svg version="1.1" xmlns="http://www.w3.org/2000/svg" width="228" height="228">
<path d="M0 0 C75.24 0 150.48 0 228 0 C228 75.24 228 150.48 228 228 C152.76 228 77.52 228 0 228 C0 152.76 0 77.52 0 0 Z " fill="#1F3C8A" transform="translate(0,0)"/>
<path d="M0 0 C8.54095211 1.01523682 8.54095211 1.01523682 12.2890625 1.90234375 C13.36027344 2.15467773 13.36027344 2.15467773 14.453125 2.41210938 C15.52820313 2.67217773 15.52820313 2.67217773 16.625 2.9375 C17.34945312 3.10701172 18.07390625 3.27652344 18.8203125 3.45117188 C21.99460012 4.20736539 25.01607823 5.00588178 28.0859375 6.12890625 C33.79858657 7.83657481 38.99968242 6.96505591 44.66796875 5.46875 C45.89064453 5.15292969 47.11332031 4.83710937 48.37304688 4.51171875 C49.63181641 4.17785156 50.89058594 3.84398438 52.1875 3.5 C54.70071016 2.83950134 57.21499261 2.1830656 59.73046875 1.53125 C60.83801514 1.23798828 61.94556152 0.94472656 63.08666992 0.64257812 C66 0 66 0 70 0 C70.0933465 7.22451141 70.16408832 14.44888938 70.20724869 21.67388535 C70.22798112 25.03012398 70.25824185 28.38563338 70.30175781 31.74169922 C70.35068783 35.61436659 70.3730637 39.48645316 70.390625 43.359375 C70.42159271 45.13667999 70.42159271 45.13667999 70.45318604 46.94989014 C70.45664315 59.99774008 66.63771924 70.20515234 58 80 C51.51346874 86.24148452 43.82226889 88.15658 35 88.375 C23.23066579 88.03404289 17.14940697 84.52048329 9 76 C2.26527917 68.33302664 -0.13681495 59.37768986 -0.11352539 49.27001953 C-0.11344986 48.16933136 -0.11337433 47.06864319 -0.11329651 45.93460083 C-0.10813522 44.76251068 -0.10297394 43.59042053 -0.09765625 42.3828125 C-0.0962413 41.17051971 -0.09482635 39.95822693 -0.09336853 38.709198 C-0.08778345 34.84777327 -0.07523361 30.98640712 -0.0625 27.125 C-0.05748308 24.50260501 -0.0529205 21.8802091 -0.04882812 19.2578125 C-0.03781889 12.83852178 -0.02109555 6.41926507 0 0 Z " fill="#FAFBFB" transform="translate(39,80)"/>
<path d="M0 0 C0.86423584 0.00136963 1.72847168 0.00273926 2.61889648 0.00415039 C11.17092542 0.2044229 18.57926407 2.44586035 26.5 5.5 C27.49 5.83 28.48 6.16 29.5 6.5 C29.5 12.44 29.5 18.38 29.5 24.5 C25.20060787 23.64012157 21.64231942 22.46579948 17.5625 20.9375 C10.31193894 18.38769385 3.18965529 17.2680125 -4.5 18.5 C-6.87728338 19.71878395 -6.87728338 19.71878395 -8.5 21.5 C-9.25015195 24.45691709 -9.25015195 24.45691709 -8.5 27.5 C-3.48558964 32.58799709 3.66545618 34.80436876 10.1328125 37.52539062 C19.78393236 41.73618744 27.77923497 46.80557182 32.5 56.5 C34.8670784 63.60123519 34.62463656 72.12201758 31.5 78.9375 C27.11596153 86.39526377 21.04805151 91.19760431 12.8125 93.83984375 C-2.61353472 96.91413605 -15.61328993 93.44335503 -29.5 86.5 C-29.5 79.9 -29.5 73.3 -29.5 66.5 C-27.870625 67.4075 -26.24125 68.315 -24.5625 69.25 C-22.5417769 70.33353894 -20.52094673 71.41687822 -18.5 72.5 C-17.77167969 72.92539063 -17.04335937 73.35078125 -16.29296875 73.7890625 C-9.51725141 77.39068663 -1.99473218 77.44108062 5.5 76.5 C8.41105272 75.34004276 8.41105272 75.34004276 10.5 73.5 C11.25011367 70.04271642 11.25011367 70.04271642 10.5 66.5 C7.78492844 63.20593642 5.07869321 61.62163792 1.17578125 59.984375 C0.14646484 59.53707031 -0.88285156 59.08976562 -1.94335938 58.62890625 C-4.08396109 57.71905387 -6.22715388 56.81527042 -8.37304688 55.91796875 C-17.63053106 51.87394019 -25.60477095 46.85782806 -29.84375 37.359375 C-32.42801588 30.03728835 -32.75681808 22.42898289 -29.5625 15.25 C-25.53502873 8.09384342 -19.33241181 3.80580034 -11.70629883 1.09545898 C-7.81591363 0.04548117 -4.0109596 -0.0286413 0 0 Z " fill="#ECC539" transform="translate(148.5,72.5)"/>
<path d="M0 0 C1.30553833 0.32133911 1.30553833 0.32133911 2.63745117 0.64916992 C5.74105988 1.4191502 8.83951078 2.20770839 11.9375 3 C12.58001709 3.16405334 13.22253418 3.32810669 13.88452148 3.49713135 C23.57557046 5.97228075 33.25889264 8.47665887 42.9375 11 C40.23729826 12.80013449 38.61634572 13.50744788 35.5703125 14.33203125 C34.6944751 14.57083008 33.8186377 14.80962891 32.91625977 15.05566406 C31.97451904 15.30541992 31.03277832 15.55517578 30.0625 15.8125 C29.09175537 16.07385742 28.12101074 16.33521484 27.12084961 16.60449219 C19.41462617 18.65815748 11.67422682 20.55209104 3.90478516 22.35083008 C3.09187012 22.5392749 2.27895508 22.72771973 1.44140625 22.921875 C0.66812988 23.09912109 -0.10514648 23.27636719 -0.90185547 23.45898438 C-2.84734298 23.94612565 -4.75814552 24.56705626 -6.66015625 25.203125 C-10.71127152 26.15195108 -14.04804221 25.78453218 -18.0625 25 C-19.09938965 24.80156494 -19.09938965 24.80156494 -20.15722656 24.59912109 C-22.34133734 24.15739645 -24.51420351 23.67959404 -26.6875 23.1875 C-27.46657715 23.01299316 -28.2456543 22.83848633 -29.04833984 22.65869141 C-35.05002797 21.2885942 -40.95229273 19.69218538 -46.8515625 17.9296875 C-50.56843058 16.85351402 -54.3043456 15.9211962 -58.0625 15 C-57.69723864 34.48011986 -57.69723864 34.48011986 -55.3671875 53.7890625 C-55.26664063 54.51867187 -55.16609375 55.24828125 -55.0625 56 C-56.0625 57 -56.0625 57 -59.625 57.0625 C-60.759375 57.041875 -61.89375 57.02125 -63.0625 57 C-62.91834802 55.1873655 -62.77207364 53.37489978 -62.625 51.5625 C-62.50318359 50.04849609 -62.50318359 50.04849609 -62.37890625 48.50390625 C-62.14642204 45.92935888 -61.87080571 43.37768414 -61.5625 40.8125 C-60.94653167 35.36540755 -60.72103428 29.91262782 -60.5 24.4375 C-60.45681641 23.42880859 -60.41363281 22.42011719 -60.36914062 21.38085938 C-60.26420439 18.92068754 -60.16296642 16.46035842 -60.0625 14 C-64.5175 13.01 -64.5175 13.01 -69.0625 12 C-69.0625 11.67 -69.0625 11.34 -69.0625 11 C-68.22609985 10.80422363 -68.22609985 10.80422363 -67.37280273 10.60449219 C-53.77465825 7.41837894 -53.77465825 7.41837894 -40.25 3.9375 C-38.49042969 3.46376953 -38.49042969 3.46376953 -36.6953125 2.98046875 C-34.79749925 2.46826324 -32.89976733 1.95574813 -31.00292969 1.43994141 C-28.87948105 0.86660056 -26.75274894 0.30714371 -24.625 -0.25 C-23.36816406 -0.58515625 -22.11132812 -0.9203125 -20.81640625 -1.265625 C-13.34490806 -2.72727085 -7.2527174 -1.84785813 0 0 Z " fill="#ECC539" transform="translate(87.0625,59)"/>
<path d="M0 0 C2.64 0 5.28 0 8 0 C8 57.42 8 114.84 8 174 C5.36 174 2.72 174 0 174 C0 116.58 0 59.16 0 0 Z " fill="#EFC738" transform="translate(196,26)"/>
<path d="M0 0 C9.00998573 1.12624822 9.00998573 1.12624822 12.2890625 1.90234375 C13.36027344 2.15467773 13.36027344 2.15467773 14.453125 2.41210938 C15.52820313 2.67217773 15.52820313 2.67217773 16.625 2.9375 C17.34945312 3.10701172 18.07390625 3.27652344 18.8203125 3.45117188 C21.99460012 4.20736539 25.01607823 5.00588178 28.0859375 6.12890625 C33.79858657 7.83657481 38.99968242 6.96505591 44.66796875 5.46875 C45.89064453 5.15292969 47.11332031 4.83710937 48.37304688 4.51171875 C49.63181641 4.17785156 50.89058594 3.84398438 52.1875 3.5 C54.70071016 2.83950134 57.21499261 2.1830656 59.73046875 1.53125 C60.83801514 1.23798828 61.94556152 0.94472656 63.08666992 0.64257812 C66 0 66 0 70 0 C70 5.94 70 11.88 70 18 C68.67226562 18.32613281 67.34453125 18.65226562 65.9765625 18.98828125 C64.19260042 19.42925116 62.40875357 19.87068739 60.625 20.3125 C59.70485107 20.5396167 58.78470215 20.7667334 57.83666992 21.00073242 C53.27487927 22.13804671 48.77727522 23.33136245 44.3125 24.8125 C33.98996681 27.90986752 24.82119617 24.52569035 14.9375 21.5 C13.48536198 21.06528249 12.03288994 20.6316791 10.58007812 20.19921875 C7.04860427 19.14763327 3.52515955 18.07352291 0 17 C0 11.39 0 5.78 0 0 Z " fill="#EEC73A" transform="translate(39,80)"/>
<path d="M0 0 C11.55 0 23.1 0 35 0 C35.6385111 21.54974946 35.6385111 21.54974946 28.5 29.9375 C23.62139482 33.96234927 19.92977149 34.45410357 13.6875 34.3046875 C9.07238626 33.7814624 6.60230065 31.90231209 3.66088867 28.41015625 C-0.49917527 22.52211363 -0.61047741 17.54176001 -0.3125 10.5 C-0.209375 7.035 -0.10625 3.57 0 0 Z " fill="#223F8C" transform="translate(57,114)"/>
<path d="M0 0 C0.495 0.99 0.495 0.99 1 2 C-0.57974609 2.36351563 -0.57974609 2.36351563 -2.19140625 2.734375 C-3.64855893 3.07239362 -5.10558039 3.41097821 -6.5625 3.75 C-7.32739746 3.92756836 -8.09229492 4.10513672 -8.88037109 4.28808594 C-12.68061075 5.18069125 -16.46234828 6.10711069 -20.22265625 7.15625 C-20.88128662 7.33961914 -21.53991699 7.52298828 -22.21850586 7.71191406 C-24.02552148 8.22192334 -25.8292768 8.74344317 -27.6328125 9.265625 C-34.81576323 10.83220822 -40.70359839 9.55001482 -47.625 7.625 C-48.45773438 7.40328125 -49.29046875 7.1815625 -50.1484375 6.953125 C-54.20898901 5.85393112 -58.1358649 4.68760186 -62 3 C-61.67 2.01 -61.34 1.02 -61 0 C-59.94941406 0.26554687 -58.89882813 0.53109375 -57.81640625 0.8046875 C-54.91994901 1.53553374 -52.02127311 2.25673248 -49.12109375 2.97265625 C-46.83292201 3.53787228 -44.55814062 4.12143186 -42.28515625 4.74609375 C-31.79143117 7.49761298 -22.16808957 4.10616165 -12.07421875 1.15625 C-3.72858026 -1.24286009 -3.72858026 -1.24286009 0 0 Z " fill="#374C81" transform="translate(108,78)"/>
<path d="M0 0 C0.99 0.33 1.98 0.66 3 1 C2.98952637 1.74459473 2.97905273 2.48918945 2.96826172 3.25634766 C2.59570866 21.60561563 2.59570866 21.60561563 4.66015625 39.7890625 C4.77230469 40.51867187 4.88445313 41.24828125 5 42 C4 43 4 43 0.4375 43.0625 C-0.696875 43.041875 -1.83125 43.02125 -3 43 C-2.85584802 41.1873655 -2.70957364 39.37489978 -2.5625 37.5625 C-2.48128906 36.55316406 -2.40007813 35.54382813 -2.31640625 34.50390625 C-2.08392204 31.92935888 -1.80830571 29.37768414 -1.5 26.8125 C-0.88403167 21.36540755 -0.65853428 15.91262782 -0.4375 10.4375 C-0.39431641 9.42880859 -0.35113281 8.42011719 -0.30664062 7.38085938 C-0.20170382 4.92067425 -0.09954299 2.46040825 0 0 Z " fill="#C8AD47" transform="translate(27,73)"/>
<path d="M0 0 C0.33 0.66 0.66 1.32 1 2 C-2.63 2.66 -6.26 3.32 -10 4 C-10 3.34 -10 2.68 -10 2 C-10.66 1.67 -11.32 1.34 -12 1 C-10.56496445 0.63597631 -9.12683494 0.28413409 -7.6875 -0.0625 C-6.88699219 -0.25972656 -6.08648437 -0.45695312 -5.26171875 -0.66015625 C-3 -1 -3 -1 0 0 Z " fill="#3F517E" transform="translate(108,78)"/>
<path d="M0 0 C0 0.66 0 1.32 0 2 C-6.28571429 4.42857143 -6.28571429 4.42857143 -10 3 C-6.48812804 0.59185923 -4.27343092 -0.36629408 0 0 Z " fill="#284287" transform="translate(98,80)"/>
<path d="M0 0 C0.99 0.33 1.98 0.66 3 1 C2.67 2.98 2.34 4.96 2 7 C1.34 7 0.68 7 0 7 C-0.38133299 5.0085944 -0.71325582 3.00720923 -1 1 C-0.67 0.67 -0.34 0.34 0 0 Z " fill="#CAAE46" transform="translate(27,91)"/>
</svg>
